<svg width="24" height="24" viewBox="0 0 24 24" fill="none" xmlns="http://www.w3.org/2000/svg">
<path d="M9.38078 2.39587C5.32059 2.39587 2.02441 5.69205 2.02441 9.75224C2.02441 13.8124 5.32059 17.1086 9.38078 17.1086C13.441 17.1086 16.7371 13.8124 16.7371 9.75224C16.7371 5.69205 13.441 2.39587 9.38078 2.39587ZM9.05335 15.7006C5.75717 15.7006 3.09403 13.0266 3.09403 9.74133C3.09403 6.45607 5.75717 3.7711 9.05335 3.7711C12.3495 3.7711 15.0127 6.44515 15.0127 9.73041C15.0127 13.0157 12.3495 15.7006 9.05335 15.7006Z" fill="#4B4F54"/>
<path d="M21.769 20.186L15.9516 14.958C15.5914 15.4055 15.1876 15.8203 14.751 16.1913L19.0513 20.9719C19.7716 21.7796 21.0268 21.8123 21.7908 21.0483C22.0309 20.8082 22.0309 20.4153 21.769 20.186Z" fill="#C5003E"/>
</svg>
